<svg version="1.1" id="Layer_1" xmlns="http://www.w3.org/2000/svg" xmlns:xlink="http://www.w3.org/1999/xlink" x="0px" y="0px"
	 width="100%" viewBox="0 0 187 249" enable-background="new 0 0 187 249" xml:space="preserve">
<path fill="#030201" opacity="0.000000" stroke="none" 
	d="
M188.000000,95.000000 
	C188.000000,145.666672 187.955658,195.833450 188.097549,245.999725 
	C188.107224,249.425034 187.424667,250.104645 183.999786,250.096939 
	C124.333420,249.962585 64.666580,249.962585 5.000218,250.096939 
	C1.575324,250.104645 0.898651,249.424210 0.903936,245.999847 
	C1.027929,165.666718 1.027929,85.333290 0.903936,5.000148 
	C0.898651,1.575781 1.575324,0.895353 5.000218,0.903065 
	C64.666580,1.037419 124.333420,1.037419 183.999786,0.903065 
	C187.424667,0.895353 188.119720,1.573099 188.099854,5.000579 
	C187.926834,34.832909 188.000000,64.666664 188.000000,95.000000 
z"/>
<path fill="#228B22" opacity="1.000000" stroke="none" 
	d="
M145.370728,161.862274 
	C135.656738,173.127899 122.844017,180.011581 110.570236,187.619156 
	C104.047531,191.662079 97.730568,195.947647 92.432014,201.557434 
	C88.630455,205.582275 85.492119,210.044296 83.695763,215.356094 
	C80.302383,225.390320 83.346565,233.422379 92.561874,238.613358 
	C98.019279,241.687546 104.044357,242.922562 110.520569,244.030396 
	C111.361107,244.353653 111.520775,244.735672 111.056107,245.325745 
	C96.635742,246.706726 83.110947,244.785828 70.601936,237.921021 
	C52.572784,228.026825 45.953526,212.705322 50.577641,192.606171 
	C50.978352,190.864426 53.033337,188.557419 50.946178,187.227936 
	C49.278408,186.165588 47.237114,188.084259 45.493912,188.960800 
	C39.556667,191.946289 34.189617,195.810974 28.776279,200.775970 
	C27.660448,196.363983 28.832954,192.887619 29.657818,189.502487 
	C33.216541,174.897827 42.460800,164.162964 53.733345,154.901398 
	C63.083591,147.219177 73.869888,141.986618 84.775391,136.984940 
	C90.540245,134.340958 96.170082,131.509140 100.897820,127.154716 
	C105.901817,122.545837 109.700966,117.201447 111.618240,110.230453 
	C116.180298,106.312218 121.853844,105.439316 126.784569,102.972527 
	C129.694275,101.516830 133.067047,103.745445 136.382324,105.319786 
	C137.937973,106.643982 138.953552,106.388000 140.108322,105.310242 
	C141.774155,103.755447 143.910538,103.387161 146.546616,103.480194 
	C148.454514,104.431732 148.374710,105.959396 148.525330,107.440468 
	C149.269547,114.758316 151.946884,118.028343 158.897644,120.373718 
	C159.378494,126.886528 158.363007,128.368774 152.628036,130.594025 
	C150.820724,131.295288 149.605194,132.600113 149.879364,135.176773 
	C150.413986,138.036469 148.660416,138.256042 146.985504,138.506531 
	C143.271194,139.062027 140.457382,141.253159 137.622025,143.238892 
	C137.937180,144.689606 138.942551,145.037201 139.765854,145.535797 
	C143.989563,148.093781 146.143539,151.571045 145.028839,156.684402 
	C144.682388,158.273605 144.496918,159.951645 145.370728,161.862274 
z"/>
<path fill="#228B22" opacity="1.000000" stroke="none" 
	d="
M136.318756,106.929138 
	C131.447067,106.219368 127.206581,104.620415 122.705574,108.582237 
	C120.599716,110.435829 116.097176,109.566582 112.249481,109.933022 
	C112.549210,104.096634 111.367149,98.582047 108.961975,92.919983 
	C108.626160,91.364960 108.165222,90.244560 106.881882,89.249161 
	C103.356659,86.547081 101.115585,82.795631 96.806587,81.381020 
	C94.883972,84.110214 96.805748,86.803757 97.228012,89.247696 
	C99.797142,104.117424 89.676964,111.513191 79.859688,113.085052 
	C73.489235,114.105042 67.127838,115.087196 60.581200,117.079407 
	C58.539803,117.428833 56.626228,116.978607 55.316196,119.017258 
	C55.204483,119.339569 54.977661,119.237076 55.028900,119.123665 
	C54.812584,119.189613 54.574661,119.402153 54.178436,119.796890 
	C52.587151,120.910606 51.183811,121.875313 49.482307,122.956131 
	C47.996563,123.605125 46.793476,124.120499 46.213646,125.811737 
	C43.476345,129.659927 42.816360,133.280838 45.971828,137.290405 
	C46.337692,137.895782 46.526798,138.192230 46.360359,138.878265 
	C36.412266,140.843628 27.342499,139.866974 19.130512,133.526627 
	C18.823156,132.946182 18.654278,132.668381 18.290157,132.224686 
	C20.459124,125.499336 20.597172,125.626167 26.371101,128.321274 
	C29.562851,129.811081 32.760574,132.772064 36.905785,129.941086 
	C36.920143,129.188599 36.762135,128.841370 36.359306,128.291153 
	C35.033745,125.722702 34.559666,123.216171 34.301453,120.276581 
	C34.426617,119.691879 34.531849,119.489471 34.777939,118.975189 
	C38.778030,115.095825 43.651657,113.314339 48.623489,111.018600 
	C51.808411,111.232933 53.936001,109.274300 56.733536,108.388550 
	C57.786320,107.856117 58.573521,107.537491 59.681000,107.209839 
	C60.937454,108.058876 61.867355,108.171890 62.909172,106.879768 
	C63.030403,106.582161 63.357597,106.610130 63.404915,106.767365 
	C63.851856,106.873802 64.213173,106.730354 64.774170,106.309402 
	C67.641151,105.722763 70.263840,105.305763 73.277863,104.877228 
	C73.872643,104.786613 74.076103,104.707520 74.226166,104.305359 
	C74.293564,101.087151 73.819954,98.344635 72.119522,95.911026 
	C71.929726,95.639397 71.860077,95.230705 71.613808,95.060081 
	C69.679329,93.719856 75.266068,91.061028 70.844650,90.326103 
	C67.061310,89.697243 63.337837,89.566467 59.694973,91.599113 
	C54.760571,94.352386 51.052013,98.355095 47.563576,102.593452 
	C44.356010,106.490570 40.956139,110.341583 36.494576,112.538353 
	C31.157278,115.166313 30.283590,118.838493 31.914732,123.916306 
	C32.259014,124.988068 32.426559,126.116608 32.819191,127.855026 
	C29.188152,127.345993 26.398659,125.888405 24.481047,123.508018 
	C21.990570,120.416496 20.501593,121.551651 18.914356,124.099037 
	C17.860905,125.789749 16.586821,127.405762 15.878778,129.235977 
	C14.361334,133.158447 12.525240,132.431351 10.102921,130.099380 
	C3.909435,124.136940 2.003840,115.591187 5.412816,107.635208 
	C8.066406,101.442184 10.664043,95.191299 15.037435,89.517525 
	C18.760582,99.741699 20.528006,100.056503 28.067783,92.136932 
	C30.359457,89.729820 32.306042,86.993645 34.603580,84.592781 
	C37.035934,82.051048 39.796631,81.195808 42.726692,84.348480 
	C42.795124,86.349304 41.803795,87.604034 41.013420,88.898788 
	C41.686619,87.799469 42.435047,86.806068 44.059647,86.386734 
	C48.085918,82.233383 53.111408,85.815559 57.593979,83.981888 
	C60.195316,82.991188 58.445755,80.706009 59.806442,79.245972 
	C60.842152,78.122894 61.606815,77.186485 62.638809,76.098557 
	C66.051727,75.628838 69.354065,76.059929 71.684471,73.931740 
	C69.549103,74.070953 67.220673,77.943382 64.189690,74.272247 
	C64.096336,71.771324 63.672020,69.405670 65.829491,67.353416 
	C66.482986,65.601357 66.755760,64.078903 67.866463,62.477222 
	C68.052689,59.459396 69.299522,58.042957 71.951958,57.138363 
	C76.672768,55.528370 81.213608,53.364918 86.673141,55.496445 
	C87.436569,56.726387 87.373299,58.097828 86.926262,58.588844 
	C81.876892,64.134834 87.221725,67.893768 89.145981,72.216743 
	C89.545555,73.114426 90.102928,74.003090 91.281670,74.027946 
	C91.798164,74.038834 92.282440,73.771439 92.463684,73.297043 
	C93.113937,71.594955 91.280876,71.707680 90.717545,70.910667 
	C87.823761,66.816460 86.224365,62.333839 87.535934,56.952435 
	C91.498161,55.777443 94.912239,56.171219 98.245895,58.431229 
	C101.006905,60.303020 104.294930,60.389404 107.305634,58.880062 
	C113.167107,55.941555 119.717941,55.397114 125.862778,53.420200 
	C130.100479,52.056847 134.542267,53.786736 138.591339,56.696682 
	C140.262573,60.740913 143.355606,62.531075 146.849335,63.759693 
	C153.020813,65.929977 159.280319,67.862259 165.389252,70.192329 
	C167.966568,71.175354 170.255371,72.914825 172.873840,74.589462 
	C174.893677,78.896423 171.931076,80.972595 169.504700,83.052086 
	C167.413162,84.844612 166.114899,86.952530 165.278564,89.879013 
	C164.827301,90.959778 164.559723,91.713020 164.151291,92.731583 
	C162.122391,94.254471 162.157394,96.717972 160.376556,98.393723 
	C159.217804,98.664253 158.382309,98.709892 157.575150,98.930702 
	C155.822601,99.410126 154.149017,99.247520 153.202896,97.567291 
	C152.345139,96.044044 152.556793,94.394226 153.486359,92.847549 
	C154.049820,91.910057 155.306931,91.339485 155.052994,89.656784 
	C152.313141,90.811394 150.931473,92.943283 149.786728,95.396690 
	C147.106079,101.141769 142.168579,104.353409 136.318756,106.929138 
z"/>
<path fill="#228B22" opacity="1.000000" stroke="none" 
	d="
M138.902954,56.586296 
	C135.720474,57.434162 132.632477,57.639950 129.633347,56.157486 
	C128.256348,55.476837 126.630508,55.572403 125.274399,56.228981 
	C119.598885,58.976845 113.035042,58.772957 107.424141,62.021599 
	C103.979027,64.016281 99.973602,63.160000 96.595978,60.861248 
	C94.213982,59.240108 91.726051,58.065174 88.396210,58.022247 
	C87.620888,58.460625 87.134300,58.673473 86.269905,58.319939 
	C79.511627,56.365589 72.932465,58.526169 69.093430,63.817562 
	C68.529243,64.359726 68.115334,64.565720 67.368408,64.845078 
	C65.061798,64.060265 65.759918,61.954224 65.076653,60.855453 
	C65.254196,61.874954 65.827583,63.166790 65.847290,64.880325 
	C65.625343,65.316498 65.450813,65.440887 64.961136,65.628769 
	C63.005760,66.473763 61.365536,67.255264 59.390900,68.115295 
	C54.463455,65.603935 53.071369,62.383820 54.753601,57.344372 
	C65.443100,41.273792 74.395096,24.592476 86.239929,9.403904 
	C87.217957,9.206089 87.725113,9.552759 88.171234,10.680853 
	C87.971916,12.560308 87.620964,13.969460 87.106117,15.702797 
	C86.651489,16.316666 86.395668,16.634462 86.106354,17.279594 
	C86.687477,21.712910 84.280586,25.298155 83.871994,29.652637 
	C83.677963,30.233297 83.553177,30.415995 83.232986,30.866936 
	C81.124184,33.763821 79.210777,36.392467 77.144081,39.354118 
	C77.513771,41.364643 76.128502,42.333157 75.540771,43.557594 
	C76.275169,42.232246 77.366432,41.298958 78.787659,40.229237 
	C90.372612,27.742970 102.150581,15.984533 117.101624,7.413043 
	C117.901764,7.405863 118.371819,7.516252 119.067123,8.314992 
	C109.094231,22.139053 98.782166,35.197460 91.245377,50.524971 
	C91.148308,51.246960 91.356743,51.470051 91.911240,51.346111 
	C101.717033,42.188683 113.465454,38.061836 126.225197,36.471535 
	C136.678299,35.168720 146.300949,37.399708 155.655502,44.451252 
	C147.541763,45.696865 138.619263,44.905716 138.902954,56.586296 
z"/>
<path fill="#228B22" opacity="1.000000" stroke="none" 
	d="
M174.186096,198.220917 
	C177.417709,195.681015 180.348190,193.338547 183.241119,191.026093 
	C184.579422,192.440430 184.099472,193.613281 183.799210,194.675873 
	C177.543701,216.815201 155.314331,240.371979 125.557564,238.111053 
	C121.870110,237.830887 118.289749,237.134811 114.802948,235.982727 
	C103.636765,232.293228 99.445778,222.972305 104.219643,212.210922 
	C108.845123,201.784042 117.412796,195.429031 127.075615,190.147522 
	C127.399673,190.709839 127.732254,191.016296 127.684898,191.243576 
	C125.337296,202.510193 128.829468,207.417435 140.499008,208.337387 
	C152.820389,209.308731 163.737152,205.031433 174.186096,198.220917 
z"/>
<path fill="#228B22" opacity="1.000000" stroke="none" 
	d="
M145.775879,162.012100 
	C142.880615,160.974075 141.983536,158.837036 142.334656,156.100784 
	C142.939560,151.386902 140.818741,148.540359 136.387573,147.206467 
	C133.896957,146.456711 131.506012,145.368011 131.708389,142.295685 
	C131.925583,138.998367 134.796875,139.636703 136.979736,139.155746 
	C140.450577,138.391052 143.216553,135.291977 147.583435,136.005371 
	C149.566986,133.285492 150.926559,130.304871 154.702469,130.160782 
	C156.177567,130.104507 156.902344,128.636536 157.159882,127.958191 
	C158.319092,124.904976 160.485306,122.671440 162.418549,120.200562 
	C164.252487,117.856590 164.881332,115.600990 162.453079,112.794357 
	C160.462860,110.494011 159.333466,107.355629 161.901428,103.976089 
	C163.661377,102.109299 165.452652,102.180939 167.729187,102.810471 
	C179.026932,107.953415 186.430206,124.927345 179.248734,140.053482 
	C177.581802,138.915390 177.484238,136.952118 176.656296,135.493027 
	C173.355423,129.675781 166.049026,129.079300 162.491226,134.779068 
	C158.646622,140.938324 155.356018,147.452332 151.997330,153.901978 
	C150.432724,156.906448 148.369003,159.448944 145.775879,162.012100 
z"/>
<path fill="#228B22" opacity="1.000000" stroke="none" 
	d="
M54.671272,57.103226 
	C55.354294,60.806293 58.029221,63.794220 58.972332,67.826416 
	C54.828823,71.339066 51.246994,75.148125 47.536621,79.310394 
	C43.094349,77.682693 39.325233,72.885902 39.753143,69.301056 
	C44.767269,65.024345 49.566956,61.134197 54.671272,57.103226 
z"/>
<path fill="#228B22" opacity="1.000000" stroke="none" 
	d="
M47.365440,108.051712 
	C50.698765,102.510628 55.032028,97.638168 60.753750,94.191109 
	C61.986065,93.448700 63.461124,92.820770 64.973740,93.577126 
	C67.002075,94.591354 65.123810,96.241814 65.846298,98.485947 
	C67.153648,101.313309 65.106575,101.526131 64.235817,102.737457 
	C58.570076,104.679573 53.149731,106.392982 47.365440,108.051712 
z"/>
<path fill="#228B22" opacity="1.000000" stroke="none" 
	d="
M176.726105,78.710518 
	C179.304733,79.610420 179.936890,81.571320 181.014801,83.531570 
	C181.760925,88.333626 179.176346,89.482704 174.931641,89.344208 
	C172.904053,89.212822 171.343018,89.146408 169.391632,89.044128 
	C166.996979,87.394783 166.461716,85.554634 168.760696,83.906738 
	C171.260132,82.115166 171.932587,77.765221 176.726105,78.710518 
z"/>
<path fill="#228B22" opacity="1.000000" stroke="none" 
	d="
M177.066772,78.624161 
	C172.983383,80.734962 171.293732,84.705910 169.108322,88.677765 
	C167.928986,89.394066 166.856674,89.779861 165.439621,90.186096 
	C162.861130,86.807854 164.339050,84.247849 167.071686,82.127724 
	C169.436279,80.293144 171.779419,78.501808 172.928528,75.193817 
	C174.355484,76.022820 175.638580,77.177177 177.066772,78.624161 
z"/>
<path fill="#228B22" opacity="1.000000" stroke="none" 
	d="
M63.807869,74.217285 
	C65.467285,74.250397 67.170914,74.755386 68.238274,73.440880 
	C72.338150,68.391617 74.784019,73.087852 77.664146,74.963951 
	C78.495872,75.505737 79.138298,76.484070 78.462700,77.552002 
	C77.841103,78.534561 76.631851,78.713455 75.789635,78.225967 
	C71.963486,76.011269 67.668007,76.853317 63.262352,76.049942 
	C63.147907,75.443069 63.389679,74.939110 63.807869,74.217285 
z"/>
<path fill="#228B22" opacity="1.000000" stroke="none" 
	d="
M39.645393,69.061066 
	C41.874935,72.497360 43.907055,75.995354 47.012653,79.211624 
	C43.997189,81.195412 42.462551,79.376030 41.692650,76.609970 
	C39.808273,76.899414 40.767517,80.439636 38.096748,79.217606 
	C36.088314,78.298630 35.850288,76.525421 36.237759,74.612953 
	C36.668522,72.486809 37.327297,70.456261 39.645393,69.061066 
z"/>
<path fill="#228B22" opacity="1.000000" stroke="none" 
	d="
M167.963913,102.632263 
	C166.640457,103.556908 165.150330,104.175591 163.329788,104.897354 
	C161.351822,106.128647 159.869186,105.860840 158.991135,104.125786 
	C157.982117,102.131912 155.961441,100.128975 158.634140,97.358292 
	C159.967346,95.172867 161.213943,93.662300 163.683060,93.083328 
	C163.705170,96.742981 164.702942,99.960129 167.963913,102.632263 
z"/>
<path fill="#228B22" opacity="1.000000" stroke="none" 
	d="
M57.594055,79.343552 
	C57.136864,79.355354 56.943657,79.489540 56.470688,79.838730 
	C56.754383,80.784477 56.579464,81.215454 55.489017,80.847549 
	C54.185997,80.387070 52.829155,80.841301 52.088776,79.779701 
	C51.233734,78.553688 52.515682,77.705452 53.166767,76.849922 
	C53.759350,76.071266 54.471142,75.369202 55.201954,74.713097 
	C56.385708,73.650345 57.661015,71.654198 59.228470,72.649704 
	C60.764256,73.625107 59.696499,75.637238 58.975815,77.493050 
	C58.371307,78.281166 59.167645,79.508820 57.594055,79.343552 
z"/>
<path fill="#228B22" opacity="1.000000" stroke="none" 
	d="
M174.771729,89.482162 
	C176.864853,88.077858 179.083847,86.646149 180.880875,84.129959 
	C182.771820,86.193436 183.059860,88.932419 183.537308,92.349640 
	C180.477417,91.385780 177.777878,90.535431 174.771729,89.482162 
z"/>
<path fill="#228B22" opacity="1.000000" stroke="none" 
	d="
M64.411255,102.985580 
	C64.196861,101.528290 64.403297,100.090416 64.718689,98.307495 
	C65.029526,98.308640 65.330788,98.476624 65.866333,98.219650 
	C66.001266,97.972816 65.953789,98.059517 65.923584,98.098633 
	C68.170326,96.712067 70.042091,97.062477 70.806412,99.734680 
	C71.715416,102.912750 68.991722,102.463829 67.252983,102.842720 
	C66.471352,103.013046 65.640564,102.957848 64.411255,102.985580 
z"/>
<path fill="#150603" opacity="0.000000" stroke="none" 
	d="
M78.517639,39.926010 
	C78.210106,42.676895 76.010773,44.370632 74.199326,46.740028 
	C73.682281,47.132660 73.391495,47.284668 72.642014,47.258270 
	C73.622025,44.738125 75.060745,42.396385 76.745132,39.870888 
	C77.330002,39.740826 77.669197,39.794529 78.517639,39.926010 
z"/>
<path fill="#200705" opacity="0.000000" stroke="none" 
	d="
M39.113289,90.751205 
	C39.783665,88.797165 40.996849,86.937637 42.476421,84.878448 
	C43.102219,85.045639 43.461628,85.412498 44.098381,86.046692 
	C42.802517,87.824593 41.229309,89.335159 39.113289,90.751205 
z"/>
<path fill="#228B22" opacity="1.000000" stroke="none" 
	d="
M56.639610,108.209335 
	C54.928688,110.159744 52.714539,111.785774 49.284691,111.048325 
	C51.160427,109.374168 53.864407,109.197128 56.639610,108.209335 
z"/>
<path fill="#200705" opacity="0.000000" stroke="none" 
	d="
M57.519402,79.680527 
	C57.705772,78.809845 58.081482,78.398506 58.653370,77.904831 
	C59.119980,78.099792 59.390408,78.377090 59.869164,78.856842 
	C59.767361,80.710121 63.450489,83.581360 58.286400,83.852356 
	C57.973248,83.429642 57.987434,83.003342 58.017937,82.257553 
	C58.159603,81.798004 58.284962,81.657944 58.243988,81.290207 
	C57.954689,80.754982 57.831715,80.447426 57.519402,79.680527 
z"/>
<path fill="#228B22" opacity="1.000000" stroke="none" 
	d="
M55.545341,119.275795 
	C55.907925,117.166634 57.342079,116.328278 59.888222,117.032928 
	C58.763645,117.816498 57.324924,118.514259 55.545341,119.275795 
z"/>
<path fill="#228B22" opacity="1.000000" stroke="none" 
	d="
M88.509903,10.896425 
	C87.913597,10.714581 87.504318,10.278005 86.796585,9.505981 
	C86.885216,8.583963 87.272293,7.997392 87.841194,7.216729 
	C88.387619,6.620136 88.839432,6.452080 89.658424,6.776092 
	C89.524582,8.236382 89.110756,9.439036 88.509903,10.896425 
z"/>
<path fill="#228B22" opacity="1.000000" stroke="none" 
	d="
M91.857887,51.048050 
	C91.533157,52.257919 91.946678,54.554264 90.083893,54.046139 
	C89.018570,53.755543 90.438934,52.256859 91.003601,51.091084 
	C91.150986,50.847088 91.631447,50.952171 91.857887,51.048050 
z"/>
<path fill="#250704" opacity="0.000000" stroke="none" 
	d="
M66.682495,63.701317 
	C67.427376,63.916763 67.859055,63.970745 68.612297,64.079910 
	C68.154770,65.029274 67.375679,65.923462 66.320961,66.938812 
	C65.737709,66.752686 65.430084,66.445396 64.884216,65.915176 
	C64.645981,65.692261 64.770668,65.276932 64.858002,65.078491 
	C65.228981,64.230370 65.518982,63.587463 66.682495,63.701317 
z"/>
<path fill="#228B22" opacity="1.000000" stroke="none" 
	d="
M62.641327,106.598557 
	C62.369217,107.557030 61.655979,108.378929 60.181034,107.345688 
	C60.751606,107.005524 61.501926,106.810234 62.641327,106.598557 
z"/>
<path fill="#228B22" opacity="1.000000" stroke="none" 
	d="
M46.316032,125.939362 
	C46.490150,124.798798 47.251457,123.795517 48.877426,123.186874 
	C48.322121,123.980858 47.460091,124.889481 46.316032,125.939362 
z"/>
<path fill="#67150C" opacity="1.000000" stroke="none" 
	d="
M110.977852,245.474274 
	C110.723145,245.115158 110.768700,244.820892 110.884911,244.311325 
	C111.620628,244.047760 112.502220,243.715668 112.661713,244.766968 
	C112.688934,244.946396 111.738922,245.274078 110.977852,245.474274 
z"/>
<path fill="#228B22" opacity="1.000000" stroke="none" 
	d="
M117.895981,7.723413 
	C118.044769,6.864279 118.657829,6.433079 119.541718,5.918274 
	C120.437126,5.568571 120.933601,5.720670 121.204742,6.721277 
	C120.655823,7.687080 120.204124,8.222556 119.522385,8.880692 
	C118.981659,8.719349 118.670959,8.435348 117.895981,7.723413 
z"/>
<path fill="#228B22" opacity="1.000000" stroke="none" 
	d="
M106.681953,89.438568 
	C107.254166,90.040489 107.971230,90.960541 108.805908,92.226418 
	C108.224609,91.633736 107.525711,90.695213 106.681953,89.438568 
z"/>
<path fill="#200705" opacity="0.000000" stroke="none" 
	d="
M55.365147,80.479782 
	C55.465469,80.187996 55.651596,80.088623 56.030636,80.052063 
	C56.074860,80.435638 56.337448,81.342430 55.365147,80.479782 
z"/>
<path fill="#228B22" opacity="1.000000" stroke="none" 
	d="
M90.080360,6.782721 
	C89.512863,7.027430 89.087318,7.021135 88.342392,7.018739 
	C88.471558,6.394762 88.920090,5.766886 89.632141,5.008699 
	C90.120308,4.829181 90.344948,4.779973 90.537918,5.074262 
	C90.411598,5.789078 90.316956,6.160397 90.080360,6.782721 
z"/>
<path fill="#228B22" opacity="1.000000" stroke="none" 
	d="
M121.353279,7.012457 
	C120.827049,6.851702 120.546570,6.551798 120.039322,6.043281 
	C120.275955,5.513468 120.739365,5.192268 121.480270,4.800369 
	C122.097069,4.667358 122.436378,4.605041 122.724770,5.057699 
	C122.315567,6.006216 121.957298,6.439761 121.353279,7.012457 
z"/>
<path fill="#228B22" opacity="1.000000" stroke="none" 
	d="
M121.986244,4.940998 
	C122.148659,4.631633 122.539566,4.533595 122.930466,4.435555 
	C122.924095,4.716325 122.917717,4.997095 122.792587,5.425269 
	C122.520805,5.432557 122.367775,5.292440 121.986244,4.940998 
z"/>
<path fill="#228B22" opacity="1.000000" stroke="none" 
	d="
M46.251495,139.256989 
	C46.028831,138.989777 46.052841,138.711700 46.112720,138.016479 
	C46.910141,138.011353 47.813812,138.393188 46.251495,139.256989 
z"/>
<path fill="#228B22" opacity="1.000000" stroke="none" 
	d="
M83.242676,31.012947 
	C83.193703,30.884546 83.359528,30.640516 83.668915,30.226845 
	C83.858162,30.404047 83.739830,30.684086 83.242676,31.012947 
z"/>
<path fill="#228B22" opacity="1.000000" stroke="none" 
	d="
M90.047318,5.014341 
	C90.130272,4.972432 90.364876,5.066474 90.552856,5.289137 
	C90.506233,5.417758 90.198982,5.150294 90.047318,5.014341 
z"/>
<path fill="#228B22" opacity="1.000000" stroke="none" 
	d="
M184.567093,189.648651 
	C184.476196,189.716675 184.436172,189.463120 184.436172,189.463120 
	C184.436172,189.463120 184.657990,189.580627 184.567093,189.648651 
z"/>
<path fill="#228B22" opacity="1.000000" stroke="none" 
	d="
M18.168587,132.290588 
	C18.334435,132.292236 18.518642,132.560074 18.819788,133.043121 
	C18.696030,133.018127 18.446102,132.784271 18.168587,132.290588 
z"/>
<path fill="#228B22" opacity="1.000000" stroke="none" 
	d="
M36.248436,128.340912 
	C36.377033,128.386703 36.557484,128.722626 36.867008,129.315857 
	C36.764149,129.259125 36.532219,128.945068 36.248436,128.340912 
z"/>
<path fill="#228B22" opacity="1.000000" stroke="none" 
	d="
M54.246246,119.884903 
	C54.229572,119.733917 54.471832,119.525635 54.898708,119.165649 
	C54.887432,119.281471 54.694717,119.552689 54.246246,119.884903 
z"/>
<path fill="#228B22" opacity="1.000000" stroke="none" 
	d="
M34.726719,118.816536 
	C34.802395,118.944977 34.674564,119.221344 34.428345,119.693359 
	C34.231346,119.548973 34.302433,119.240791 34.726719,118.816536 
z"/>
<path fill="#228B22" opacity="1.000000" stroke="none" 
	d="
M86.318176,17.417229 
	C86.234383,17.231171 86.430870,16.883537 86.784790,16.281443 
	C86.827637,16.436539 86.713051,16.846096 86.318176,17.417229 
z"/>
<path fill="#228B22" opacity="1.000000" stroke="none" 
	d="
M46.965176,107.970627 
	C46.951225,107.961327 46.969692,108.237061 46.969692,108.237061 
	C46.969692,108.237061 46.848896,108.038559 46.925194,108.017799 
	C47.001492,107.997040 46.979126,107.979919 46.965176,107.970627 
z"/>
<path fill="#228B22" opacity="1.000000" stroke="none" 
	d="
M64.703003,106.151741 
	C64.671906,106.317566 64.325356,106.495369 63.715519,106.798889 
	C63.764011,106.670967 64.075783,106.417343 64.703003,106.151741 
z"/>
<path fill="#250704" opacity="0.000000" stroke="none" 
	d="
M58.065536,81.281357 
	C58.083160,81.282425 58.076805,81.501915 58.046417,81.829536 
	C58.034248,81.938072 58.053413,81.500175 58.065536,81.281357 
z"/>
<path fill="#228B22" opacity="1.000000" stroke="none" 
	d="
M74.026550,104.191574 
	C74.202904,104.273575 74.114532,104.522041 73.788422,104.796707 
	C73.739571,104.710747 73.809959,104.555794 74.026550,104.191574 
z"/>
<path fill="#228B22" opacity="1.000000" stroke="none" 
	d="
M158.701218,96.944496 
	C159.457993,99.842934 160.426376,102.447098 162.759399,104.762787 
	C162.907181,108.111412 163.486526,110.663773 166.521805,112.580597 
	C170.122589,114.854553 168.528763,117.763832 166.300568,120.074829 
	C160.827576,125.751205 155.654861,131.795700 148.284851,135.823029 
	C148.203079,132.938217 149.452271,130.493546 152.398758,129.308640 
	C155.851425,127.920212 157.065643,125.292625 156.987305,121.403214 
	C152.695587,116.837639 148.893112,112.360558 147.356445,106.117371 
	C143.447952,105.513649 140.226700,107.907822 136.323517,107.095146 
	C143.444077,100.489243 147.812698,91.262985 155.481094,84.937645 
	C156.590408,84.022614 157.310394,82.185577 159.085098,83.156090 
	C160.960861,84.181870 160.282547,86.029900 159.881882,87.623238 
	C159.349716,89.739578 158.341171,91.628387 157.009689,93.367508 
	C155.570450,95.247368 156.216400,96.395927 158.701218,96.944496 
z"/>
<path fill="#228B22" opacity="1.000000" stroke="none" 
	d="
M147.001251,106.442444 
	C152.470352,109.245384 155.116959,114.452065 156.952209,120.627319 
	C155.871201,121.687103 154.708984,122.325508 153.623306,123.074799 
	C152.207230,124.052086 151.033295,124.046013 150.611511,122.198868 
	C149.443878,117.085434 145.933212,112.520889 147.001251,106.442444 
z"/>
<path fill="#228B22" opacity="1.000000" stroke="none" 
	d="
M85.683250,58.147812 
	C86.444374,58.000462 86.888710,58.000580 87.666275,58.000847 
	C89.031494,59.679539 91.039047,60.860016 91.136269,62.980747 
	C91.281258,66.143539 91.374603,68.826309 95.818359,66.916054 
	C97.033386,66.393745 98.411819,67.506111 97.875938,68.820908 
	C96.697113,71.713165 96.398613,75.067017 94.213654,77.441063 
	C91.407143,80.490433 87.963806,79.534836 86.935280,75.504601 
	C86.309586,73.052811 85.735542,70.757057 83.355667,69.244423 
	C78.973648,66.459236 78.941093,62.795704 83.155960,59.429665 
	C83.790237,58.923122 84.624634,58.667152 85.683250,58.147812 
z"/>
<path fill="#228B22" opacity="1.000000" stroke="none" 
	d="
M78.451263,105.831116 
	C77.466240,104.132515 77.414772,102.551239 78.133797,101.246010 
	C80.501732,96.947563 82.802452,92.572823 85.621658,88.574791 
	C87.831978,85.440262 91.049019,86.199753 92.370491,89.770348 
	C93.913696,93.940071 90.337830,104.579048 86.495499,106.760544 
	C83.836418,108.270241 81.119865,108.173378 78.451263,105.831116 
z"/>
<path fill="#150603" opacity="0.000000" stroke="none" 
	d="
M16.319305,107.615623 
	C17.710768,106.649696 18.983727,104.763062 20.213306,106.641975 
	C20.961508,107.785294 20.338171,109.806061 18.831055,110.483559 
	C16.940929,111.333252 15.767297,112.852798 14.472510,114.791672 
	C13.354655,111.644058 14.826807,109.782631 16.319305,107.615623 
z"/>
<path fill="#228B22" opacity="1.000000" stroke="none" 
	d="
M126.437439,64.764679 
	C129.056885,66.495392 128.102356,67.870422 126.233589,68.921745 
	C124.998703,69.616463 123.351646,69.667976 122.988091,68.018829 
	C122.487595,65.748558 124.026947,64.795509 126.437439,64.764679 
z"/>
<path fill="#228B22" opacity="1.000000" stroke="none" 
	d="
M110.008545,77.518188 
	C108.457649,77.152428 107.585480,76.485878 108.724159,75.190285 
	C109.424232,74.393715 110.579041,74.395302 111.279305,75.191162 
	C112.404655,76.470139 111.585022,77.162735 110.008545,77.518188 
z"/>
<path fill="#228B22" opacity="1.000000" stroke="none" 
	d="
M147.793900,86.611206 
	C147.493637,86.298203 147.332153,85.955215 147.170670,85.612228 
	C147.438034,85.553513 147.705414,85.494804 147.972778,85.436096 
	C147.959412,85.817802 147.946045,86.199509 147.793900,86.611206 
z"/>
<path fill="#228B22" opacity="1.000000" stroke="none" 
	d="
M131.006119,86.346458 
	C130.869202,86.129631 130.832840,85.914612 130.796478,85.699593 
	C130.934708,85.700928 131.072922,85.702255 131.211151,85.703590 
	C131.176315,85.918480 131.141495,86.133377 131.006119,86.346458 
z"/>
<path fill="#228B22" opacity="1.000000" stroke="none" 
	d="
M37.473305,92.849915 
	C37.036888,93.322189 36.868984,93.212479 36.801659,92.858406 
	C37.077656,92.657272 37.357517,92.541901 37.473305,92.849915 
z"/>
<path fill="#200705" opacity="0.000000" stroke="none" 
	d="
M38.910194,90.935242 
	C38.717342,91.470512 38.411678,91.912415 37.850079,92.669983 
	C37.594143,92.985664 37.521526,92.593697 37.396339,92.438599 
	C37.553230,91.916611 37.835308,91.549713 38.343933,90.919754 
	C38.570480,90.656693 38.797382,90.841873 38.910194,90.935242 
z"/>
<path fill="#228B22" opacity="1.000000" stroke="none" 
	d="
M37.526131,92.804260 
	C37.594143,92.985664 37.421970,93.192917 37.365601,93.233109 
	C37.309227,93.273293 37.054958,93.024094 36.926376,92.898361 
	C36.797794,92.772636 37.090279,92.422081 37.180714,92.352798 
	C37.271149,92.283508 37.458118,92.622864 37.526131,92.804260 
z"/>
<path fill="#228B22" opacity="1.000000" stroke="none" 
	d="
M66.924652,63.506344 
	C66.501709,64.161896 66.007713,64.461021 65.229538,64.820091 
	C64.203636,62.861828 63.368233,60.933926 61.215038,59.962578 
	C60.502457,59.641121 59.525272,59.206062 59.835400,58.249424 
	C60.210373,57.092777 61.378036,57.182838 62.327244,57.385273 
	C65.407097,58.042095 66.234344,60.527607 66.924652,63.506344 
z"/>
<path fill="#3F0C06" opacity="0.000000" stroke="none" 
	d="
M72.038376,47.240833 
	C72.481445,47.060810 72.779594,47.041752 73.525406,47.001671 
	C73.546036,47.617199 73.119003,48.253750 72.466614,49.071892 
	C71.979950,49.288933 71.718658,49.324379 71.397934,48.968784 
	C71.523483,48.185764 71.708466,47.793781 72.038376,47.240833 
z"/>
<path fill="#3F0C06" opacity="0.000000" stroke="none" 
	d="
M72.017212,49.082340 
	C71.740845,49.687462 71.330772,49.820415 71.280457,48.762760 
	C71.490051,48.688892 71.641617,48.800045 72.017212,49.082340 
z"/>
<path fill="#228B22" opacity="1.000000" stroke="none" 
	d="
M69.497681,52.514450 
	C69.514229,52.511883 69.481125,52.517021 69.497681,52.514450 
z"/>
<path fill="#228B22" opacity="1.000000" stroke="none" 
	d="
M172.873367,120.156876 
	C173.921585,118.523605 175.014999,117.410576 176.470856,119.072449 
	C177.819977,120.612450 177.609100,122.417007 176.443558,124.013107 
	C175.626953,125.131363 174.363342,125.922707 173.063171,125.163445 
	C170.852188,123.872269 172.217529,122.066612 172.873367,120.156876 
z"/>
<path fill="#3F0C06" opacity="0.000000" stroke="none" 
	d="
M65.708565,97.889709 
	C65.848381,98.693565 65.588409,99.062241 64.903549,98.123032 
	C65.023712,97.910507 65.219788,97.858551 65.708565,97.889709 
z"/>
<path fill="#228B22" opacity="1.000000" stroke="none" 
	d="
M160.543137,112.843704 
	C160.415817,113.257462 160.355377,113.311867 160.543137,112.843704 
z"/>
</svg>